<?xml version="1.0" encoding="utf-8"?>
<!-- Generator: Adobe Illustrator 24.1.0, SVG Export Plug-In . SVG Version: 6.00 Build 0)  -->
<svg version="1.1" id="Layer_1" xmlns="http://www.w3.org/2000/svg" xmlns:xlink="http://www.w3.org/1999/xlink" x="0px" y="0px"
	 viewBox="0 0 1617 1617" style="enable-background:new 0 0 1617 1617;" xml:space="preserve">
<style type="text/css">
	.st0{fill:#E0CB26;}
	.st1{fill:#A39634;}
	.st2{fill:#FFFFFF;}
	.st3{fill:#103C68;}
</style>
<g>
	<path class="st0" d="M553,922.7v-69.4H272.8c40.5,67.6,124.5,69,124.1,69C387.7,922.3,453.3,922.5,553,922.7z"/>
	<path class="st0" d="M553,740.4H147.2c23,53.8,85.7,86,114.5,86H553V740.4z"/>
	<path class="st0" d="M553,583H14c-4.3,0.2-7.5,3.8-7.3,8.1c0,0.4,0.1,0.9,0.2,1.3C20,655,99.6,713.5,137.3,713.5H553V583z"/>
	<path class="st0" d="M1062.5,922.7v-69.4h280.1c-40.5,67.6-124.5,69-124.1,69C1227.8,922.3,1162.2,922.5,1062.5,922.7z"/>
	<path class="st0" d="M1062.5,740.4h405.8c-23,53.8-85.7,86-114.5,86h-291.4V740.4z"/>
	<path class="st0" d="M1062.5,583h539c4.3,0.2,7.5,3.8,7.3,8.1c0,0.4-0.1,0.9-0.2,1.3c-13.1,62.6-92.7,121.2-130.3,121.2h-415.7V583
		z"/>
	<path class="st1" d="M282.2,593.8c7.2,226.6,239.8,408.4,525.6,408.4s518.6-182,525.6-408.8c0.4-5.8-2.9-10.5-8-10.5H291.7
		C283.9,583,281.9,588.5,282.2,593.8z"/>
	<path class="st2" d="M1039.1,461.1H576.3c-13.5,0-24.4,10.9-24.4,24.4v451.5c0,10.4,2.5,13.4,5.3,17.9
		c20.4,32.2,123.8,163.8,180.5,216.4c8.8,8.1,48.1,51.6,70,51.6c21.8,0,61.2-43.4,70-51.6c56.7-52.7,160.2-184.2,180.5-216.4
		c2.8-4.5,5.3-7.5,5.3-17.9V485.5C1063.5,472.1,1052.6,461.1,1039.1,461.1z"/>
	<path class="st3" d="M1039.1,461.1H576.3c-13.5,0-24.4,10.9-24.4,24.4v451.5c0,10.4,2.5,13.4,5.3,17.9
		c12.1,19.1,53.4,73.2,97,125.1V705.4h102.3v484.5c15.8,15,37.1,33.1,51.2,33.1s35.4-18,51.2-33V705.4h102.3v374.7
		c43.5-51.8,84.8-106,97-125.1c2.8-4.5,5.3-7.5,5.3-17.9V485.5C1063.5,472.1,1052.6,461.1,1039.1,461.1z M675.5,615.7l-28-15.4
		l-28.1,15.4l6-31.5l-23.3-21.9l31.8-4l13.7-29l13.7,29l31.8,4l-23.3,21.9L675.5,615.7z M841.5,597.3l9.1,48.1l-42.9-23.5
		l-42.9,23.5l9.1-48.1l-35.6-33.5l48.5-6.2l20.8-44.2l20.9,44.2l48.6,6.2L841.5,597.3z M996.1,615.7l-28.2-15.4l-28.1,15.4l6-31.5
		l-23.3-21.9l31.8-4l13.7-29l13.7,29l31.8,4L990,584.2L996.1,615.7z"/>
</g>
</svg>
