<svg enable-background="new 0 0 157 95" viewBox="0 0 157 95" xmlns="http://www.w3.org/2000/svg"><g fill="#fff"><path d="m11.6 90.2c0 .4-.1.9-.2 1.3s-.4.8-.6 1.1c-.3.3-.7.5-1.1.7-1 .3-2 .3-3 0-.4-.2-.8-.4-1.1-.7s-.5-.7-.7-1.1-.2-.9-.2-1.3v-5h1.8v4.9c0 .2 0 .5.1.7s.2.4.4.6.3.3.5.4.4.1.7.1c.2 0 .4 0 .6-.1s.4-.2.5-.4.3-.3.3-.6c.1-.2.1-.5.1-.7v-4.9h1.8z"/><path d="m12.7 92.3c0-.1 0-.3.1-.4s.1-.2.2-.3c.3-.3.8-.4 1.2-.2.1.1.2.1.3.2s.2.2.2.3c.1.3.1.6 0 .8-.1.1-.1.2-.2.3s-.2.2-.3.2-.3.1-.4.1-.3 0-.4-.1-.2-.1-.3-.2-.2-.2-.2-.3c-.1-.1-.2-.2-.2-.4z"/><path d="m22.3 87.2c-.1-.2-.4-.3-.6-.4s-.5-.1-.7-.1c-.1 0-.3 0-.4.1-.1 0-.3.1-.4.1-.1.1-.2.2-.3.3-.2.3-.1.7.2.9.2.2.5.3.7.3l.9.3s.6.2.9.4.5.4.7.7.3.7.3 1.1-.1.8-.2 1.2c-.2.3-.4.6-.7.8s-.6.4-1 .5c-.9.2-1.8.2-2.7-.1-.5-.2-.9-.4-1.3-.8l1.3-1.4c.2.2.4.4.7.6.4.2.9.2 1.3.2.1 0 .3-.1.4-.2s.2-.2.3-.3.1-.2.1-.4-.1-.4-.3-.6-.5-.3-.7-.4c-.3-.1-.6-.2-.9-.3s-.6-.2-.9-.4-.5-.4-.7-.7c-.3-.2-.4-.6-.3-1 0-.4.1-.8.3-1.1s.4-.6.7-.8.6-.4 1-.5.8-.2 1.1-.2c.5 0 .9.1 1.3.2s.8.3 1.2.7z"/><path d="m24.9 92.3c0-.1 0-.3.1-.4 0-.1.1-.2.2-.3s.2-.2.3-.2c.3-.1.6-.1.8 0 .1.1.2.1.3.2s.2.2.2.3c.1.3.1.6 0 .8s-.3.5-.6.6-.6.1-.8 0c-.1-.1-.2-.1-.3-.2 0-.1-.1-.2-.1-.4-.1-.1-.1-.2-.1-.4z"/><path d="m34.2 85.2h2.7c.6 0 1.2.1 1.8.2.5.1 1.1.4 1.5.7s.8.8 1 1.3c.3.6.4 1.2.4 1.9 0 .6-.1 1.2-.4 1.7-.2.5-.6.9-1 1.3-.4.3-.9.6-1.5.8s-1.1.3-1.7.3h-2.9v-8.2zm1.7 6.5h.9c.4 0 .8 0 1.2-.1.3-.1.7-.2.9-.4.3-.2.5-.5.6-.8.2-.4.2-.8.2-1.2s-.1-.7-.2-1-.3-.5-.6-.7-.6-.3-.9-.4-.7-.1-1.1-.1h-1c0-.2 0 4.7 0 4.7z"/><path d="m44.5 85.2h1.8v8.1h-1.8z"/><path d="m57 92.7c-.5.3-1.1.5-1.7.6s-1.2.2-1.8.2-1.2-.1-1.8-.3c-.5-.2-1-.5-1.4-.8-.3-.4-.6-.9-.8-1.4-.4-1.1-.4-2.4 0-3.5.2-.5.5-1 .9-1.3.4-.4.9-.7 1.4-.8.6-.2 1.2-.3 1.8-.3s1.2.1 1.8.2c.5.2 1 .4 1.4.8l-1.3 1.4c-.2-.2-.5-.4-.8-.6-.4-.1-.8-.2-1.1-.2s-.7.1-1 .2-.6.3-.8.5-.4.5-.5.8c-.2.7-.2 1.4 0 2.1.1.3.3.6.5.8s.5.4.8.5.7.2 1 .2.7 0 1-.1c.2-.1.5-.2.7-.3v-1.3h-1.5v-1.6h3.2z"/><path d="m60.2 85.2h1.8v8.1h-1.8z"/><path d="m66.9 86.8h-2.3v-1.6h6.4v1.6h-2.3v6.5h-1.8z"/><path d="m75.3 85.2h1.5l3.5 8.1h-2l-.7-1.7h-3.1l-.7 1.7h-2zm.6 2.4-1 2.5h2z"/><path d="m82.8 85.2h1.8v6.4h3.3v1.7h-5.1z"/><path d="m99.8 87.2c-.2-.2-.4-.3-.6-.4s-.5-.1-.7-.1c-.1 0-.3 0-.4.1-.1 0-.3.1-.4.1s-.2.2-.3.3c-.2.3-.1.7.2.9.2.2.4.3.7.3.3.1.6.2.9.3s.6.2.9.4.5.4.7.7.3.7.3 1.1-.1.8-.2 1.2c-.2.3-.4.6-.7.8s-.6.4-1 .5c-.9.2-1.8.2-2.7-.1-.5-.2-.9-.4-1.3-.8l1.3-1.4c.2.2.4.4.7.6.4.2.9.2 1.3.2.1 0 .3-.1.4-.2l.3-.3c.1-.1.1-.2.1-.4s-.1-.4-.3-.6-.4-.3-.7-.4-.6-.2-.9-.3-.6-.2-.9-.4-.5-.4-.7-.7-.3-.7-.3-1.1.1-.8.3-1.1.4-.6.7-.8.6-.4 1-.5.8-.2 1.2-.2.9.1 1.3.2.8.3 1.2.7z"/><path d="m104.1 85.2h5.5v1.6h-3.7v1.5h3.5v1.7h-3.5v1.7h3.9v1.7h-5.7z"/><path d="m112.9 85.2h3.1c.4 0 .8 0 1.2.1.3.1.7.2 1 .4s.5.4.7.8.3.8.2 1.2c0 .5-.1 1-.4 1.5-.3.4-.8.7-1.3.8l2.1 3.4h-2.1l-1.7-3.2h-.9v3.2h-1.8zm1.8 3.4h1.1.5c.2 0 .3 0 .5-.1.1-.1.3-.2.4-.3.1-.2.2-.3.1-.5 0-.2 0-.3-.1-.5-.1-.1-.2-.2-.3-.3s-.3-.1-.4-.1c-.2 0-.3 0-.5 0h-1.2z"/><path d="m121.3 85.2h2l2 5.3 2-5.3h1.9l-3.4 8.1h-1.4z"/><path d="m131.8 85.2h1.8v8.1h-1.8z"/><path d="m142.2 87.3c-.2-.2-.4-.4-.6-.5-.3-.1-.6-.2-.9-.2-.6 0-1.2.3-1.7.7-.2.2-.4.5-.5.8-.2.7-.2 1.4 0 2.1.1.3.3.6.5.8s.4.4.7.5.6.2.9.2.7-.1 1-.2c.3-.2.5-.4.7-.6l1.5 1.1c-.3.5-.8.8-1.3 1.1-.5.2-1.1.3-1.6.3-.6 0-1.2-.1-1.8-.3-.5-.2-1-.5-1.4-.8-.4-.4-.7-.8-.9-1.3-.4-1.1-.4-2.4 0-3.5.2-.5.5-1 .9-1.3.4-.4.9-.7 1.4-.8.6-.2 1.1-.3 1.8-.3.2 0 .5 0 .7.1.2 0 .5.1.7.2s.5.2.7.4.4.3.6.6z"/><path d="m146.6 85.2h5.5v1.6h-3.7v1.5h3.5v1.7h-3.5v1.7h3.9v1.7h-5.7z"/></g><path d="m54.2 44v-6.6h-26.8c3.9 6.5 11.9 6.6 11.9 6.6z" fill="#e0cb26"/><path d="m54.2 26.6h-38.8c2.2 5.1 8.2 8.2 10.9 8.2h27.8z" fill="#e0cb26"/><path d="m54.2 11.6h-51.5c-.4 0-.7.4-.7.8v.1c1.2 6 8.9 11.6 12.4 11.6h39.7v-12.5z" fill="#e0cb26"/><path d="m102.8 44v-6.6h26.8c-3.9 6.5-11.9 6.6-11.8 6.6.8 0-5.5 0-15 0z" fill="#e0cb26"/><path d="m102.8 26.6h38.8c-2.2 5.1-8.2 8.2-10.9 8.2h-27.8z" fill="#e0cb26"/><path d="m102.8 11.6h51.5c.4 0 .7.4.7.8v.1c-1.2 6-8.9 11.6-12.4 11.6h-39.7v-12.5z" fill="#e0cb26"/><path d="m28.3 12.6c.7 21.6 22.9 39 50.2 39s49.5-17.4 50.2-39c0-.6-.3-1-.8-1h-98.7c-.7 0-.9.5-.9 1z" fill="#a39634"/><path d="m100.6-.1h-44.2c-1.3 0-2.3 1-2.3 2.3v43.1c0 1 .2 1.3.5 1.7 2 3.1 11.8 15.6 17.2 20.7.8.8 4.6 4.9 6.7 4.9s5.8-4.1 6.7-4.9c5.4-5 15.3-17.6 17.2-20.7.3-.4.5-.7.5-1.7v-43c0-1.3-1-2.4-2.3-2.4z" fill="#fff"/><path d="m100.6-.1h-44.2c-1.3 0-2.3 1-2.3 2.3v43.1c0 1 .2 1.3.5 1.7 1.2 1.8 5.1 7 9.3 12v-35.7h9.8v46.3c1.5 1.4 3.5 3.2 4.9 3.2s3.4-1.7 4.9-3.2v-46.3h9.8v35.7c4.2-5 8.1-10.1 9.3-12 .3-.4.5-.7.5-1.7v-43c-.2-1.3-1.2-2.4-2.5-2.4zm-34.7 14.8-2.7-1.5-2.7 1.5.6-3-2.2-2.1 3-.4 1.3-2.8 1.3 2.8 3 .4-2.2 2.1zm15.8-1.8.9 4.6-4.1-2.2-4.1 2.2.9-4.6-3.4-3.2 4.6-.6 2-4.2 2 4.2 4.6.6zm14.8 1.8-2.7-1.5-2.7 1.5.6-3-2.2-2.1 3-.4 1.3-2.8 1.3 2.8 3 .4-2.2 2.1z" fill="#103c68"/></svg>